<svg width="661" height="796" viewBox="0 0 661 796" fill="none" xmlns="http://www.w3.org/2000/svg">
<path fill-rule="evenodd" clip-rule="evenodd" d="M493 0H118V659L117.999 659V795.721C156.199 739.408 225.876 701.724 305.5 701.724C385.123 701.724 454.801 739.408 493 795.721V659V0Z" fill="url(#paint0_linear_1505_455)"/>
<path fill-rule="evenodd" clip-rule="evenodd" d="M493 0H118V659L117.999 659V795.721C156.199 739.408 225.876 701.724 305.5 701.724C385.123 701.724 454.801 739.408 493 795.721V659V0Z" fill="url(#paint1_linear_1505_455)"/>
<rect x="402.298" y="246.172" width="89.0097" height="301.775" rx="44.5048" transform="rotate(-38.6688 402.298 246.172)" fill="url(#paint2_linear_1505_455)" fill-opacity="0.32"/>
<rect x="128.614" y="90.6147" width="89.0097" height="301.775" rx="44.5048" transform="rotate(-38.6688 128.614 90.6147)" fill="#7373FF" fill-opacity="0.32"/>
<rect x="242" y="428.615" width="89.0097" height="301.775" rx="44.5048" transform="rotate(-38.6688 242 428.615)" fill="#7373FF" fill-opacity="0.32"/>
<rect y="390.479" width="89.0097" height="301.775" rx="44.5048" transform="rotate(-38.6688 0 390.479)" fill="#7373FF" fill-opacity="0.32"/>
<defs>
<linearGradient id="paint0_linear_1505_455" x1="493" y1="608.5" x2="400.102" y2="606.863" gradientUnits="userSpaceOnUse">
<stop stop-color="#7E55FF"/>
<stop offset="1" stop-color="#6B50FF"/>
</linearGradient>
<linearGradient id="paint1_linear_1505_455" x1="441.081" y1="399.961" x2="-349.582" y2="585.432" gradientUnits="userSpaceOnUse">
<stop stop-color="#1A1822"/>
<stop offset="1" stop-color="#9040E3"/>
</linearGradient>
<linearGradient id="paint2_linear_1505_455" x1="446.803" y1="246.172" x2="462.277" y2="528.332" gradientUnits="userSpaceOnUse">
<stop offset="0.236111" stop-color="#7373FF"/>
<stop offset="1" stop-color="#7373FF" stop-opacity="0"/>
</linearGradient>
</defs>
</svg>
