<svg width="2464" height="1116" viewBox="0 0 2464 1116" fill="none" xmlns="http://www.w3.org/2000/svg">
<rect x="395" y="320" width="1600" height="659" fill="url(#paint0_linear_1504_454)"/>
<rect width="183.103" height="620.785" rx="91.5514" transform="matrix(-0.335689 0.941973 0.941973 0.335689 1878.47 687)" fill="url(#paint1_linear_1504_454)" fill-opacity="0.32"/>
<path fill-rule="evenodd" clip-rule="evenodd" d="M1995 1115.72L1995 979L395 979L395 1115.72C557.983 1059.41 855.274 1021.72 1195 1021.72C1534.73 1021.72 1832.02 1059.41 1995 1115.72Z" fill="url(#paint2_linear_1504_454)"/>
<rect x="807" y="434.406" width="183.103" height="620.785" rx="91.5514" transform="rotate(-38.6688 807 434.406)" fill="url(#paint3_linear_1504_454)" fill-opacity="0.32"/>
<rect x="388" y="114.406" width="183.103" height="620.785" rx="91.5514" transform="rotate(-38.6688 388 114.406)" fill="#7373FF" fill-opacity="0.32"/>
<rect x="72" y="309.406" width="183.103" height="620.785" rx="91.5514" transform="rotate(-38.6688 72 309.406)" fill="#7373FF" fill-opacity="0.32"/>
<rect y="628.406" width="183.103" height="620.785" rx="91.5514" transform="rotate(-38.6688 0 628.406)" fill="#7373FF" fill-opacity="0.32"/>
<rect width="183.103" height="620.785" rx="91.5514" transform="matrix(0.91041 -0.413708 -0.413708 -0.91041 1786.82 674.92)" fill="url(#paint4_linear_1504_454)" fill-opacity="0.32"/>
<defs>
<linearGradient id="paint0_linear_1504_454" x1="1427" y1="878.796" x2="1932.66" y2="268.361" gradientUnits="userSpaceOnUse">
<stop stop-color="#6B50FF"/>
<stop offset="1" stop-color="#A145FF"/>
</linearGradient>
<linearGradient id="paint1_linear_1504_454" x1="91.5514" y1="0" x2="123.384" y2="580.434" gradientUnits="userSpaceOnUse">
<stop stop-color="#7373FF"/>
<stop offset="1" stop-color="#7373FF" stop-opacity="0"/>
</linearGradient>
<linearGradient id="paint2_linear_1504_454" x1="1995" y1="928.5" x2="1647.5" y2="905.5" gradientUnits="userSpaceOnUse">
<stop stop-color="#7E55FF"/>
<stop offset="1" stop-color="#6B50FF"/>
</linearGradient>
<linearGradient id="paint3_linear_1504_454" x1="898.551" y1="434.406" x2="930.384" y2="1014.84" gradientUnits="userSpaceOnUse">
<stop offset="0.236111" stop-color="#7373FF"/>
<stop offset="1" stop-color="#7373FF" stop-opacity="0"/>
</linearGradient>
<linearGradient id="paint4_linear_1504_454" x1="91.5514" y1="0" x2="123.384" y2="580.434" gradientUnits="userSpaceOnUse">
<stop offset="0.236111" stop-color="#7373FF"/>
<stop offset="1" stop-color="#7373FF" stop-opacity="0"/>
</linearGradient>
</defs>
</svg>
