<svg width="375" height="796" viewBox="0 0 375 796" fill="none" xmlns="http://www.w3.org/2000/svg">
<rect width="375" height="659" fill="url(#paint0_linear_1511_457)"/>
<path fill-rule="evenodd" clip-rule="evenodd" d="M-51 795.721C-2.41064 739.408 86.2192 701.724 187.5 701.724C288.781 701.724 377.41 739.408 426 795.721L426 659L-51 659L-51 795.721Z" fill="url(#paint1_linear_1511_457)"/>
<rect x="284.298" y="246.172" width="89.0097" height="301.775" rx="44.5048" transform="rotate(-38.6688 284.298 246.172)" fill="url(#paint2_linear_1511_457)" fill-opacity="0.32"/>
<rect x="10.614" y="90.6147" width="89.0097" height="301.775" rx="44.5048" transform="rotate(-38.6688 10.614 90.6147)" fill="#7373FF" fill-opacity="0.32"/>
<rect x="124" y="428.615" width="89.0097" height="301.775" rx="44.5048" transform="rotate(-38.6688 124 428.615)" fill="#7373FF" fill-opacity="0.32"/>
<rect x="-118" y="390.479" width="89.0097" height="301.775" rx="44.5048" transform="rotate(-38.6688 -118 390.479)" fill="#7373FF" fill-opacity="0.32"/>
<defs>
<linearGradient id="paint0_linear_1511_457" x1="241.875" y1="558.796" x2="511.519" y2="482.503" gradientUnits="userSpaceOnUse">
<stop stop-color="#6B50FF"/>
<stop offset="1" stop-color="#A145FF"/>
</linearGradient>
<linearGradient id="paint1_linear_1511_457" x1="426" y1="608.5" x2="321.988" y2="606.447" gradientUnits="userSpaceOnUse">
<stop stop-color="#7E55FF"/>
<stop offset="1" stop-color="#6B50FF"/>
</linearGradient>
<linearGradient id="paint2_linear_1511_457" x1="328.803" y1="246.172" x2="344.277" y2="528.332" gradientUnits="userSpaceOnUse">
<stop offset="0.236111" stop-color="#7373FF"/>
<stop offset="1" stop-color="#7373FF" stop-opacity="0"/>
</linearGradient>
</defs>
</svg>
