<svg width="113" height="19" viewBox="0 0 113 19" fill="none" xmlns="http://www.w3.org/2000/svg">
<g clip-path="url(#clip0_2_282)">
<path d="M9.43776 1.31569C9.76784 0.531692 10.892 0.531693 11.2221 1.31569L13.1702 5.94298C13.3095 6.27349 13.6241 6.49932 13.9853 6.52793L19.0419 6.92842C19.8986 6.99628 20.246 8.05253 19.5933 8.60493L15.7407 11.8652C15.4655 12.0981 15.3453 12.4635 15.4293 12.8117L16.6064 17.6865C16.8058 18.5124 15.8963 19.1653 15.1628 18.7227L10.8336 16.1103C10.5244 15.9237 10.1355 15.9237 9.82627 16.1103L5.49704 18.7227C4.76353 19.1653 3.85404 18.5124 4.05346 17.6865L5.23051 12.8117C5.31458 12.4635 5.19441 12.0981 4.91923 11.8652L1.06656 8.60493C0.413812 8.05253 0.761213 6.99628 1.61796 6.92842L6.67465 6.52793C7.03584 6.49932 7.35046 6.27349 7.48961 5.94298L9.43776 1.31569Z" fill="#42A8DF"/>
<path d="M32.4837 1.31569C32.8137 0.531692 33.9379 0.531693 34.268 1.31569L36.2161 5.94298C36.3554 6.27349 36.67 6.49932 37.0312 6.52793L42.0878 6.92842C42.9445 6.99628 43.2919 8.05253 42.6392 8.60493L38.7866 11.8652C38.5114 12.0981 38.3912 12.4635 38.4752 12.8117L39.6523 17.6865C39.8517 18.5124 38.9422 19.1653 38.2087 18.7227L33.8795 16.1103C33.5703 15.9237 33.1814 15.9237 32.8722 16.1103L28.5429 18.7227C27.8094 19.1653 26.8999 18.5124 27.0994 17.6865L28.2764 12.8117C28.3605 12.4635 28.2403 12.0981 27.9651 11.8652L24.1125 8.60493C23.4597 8.05253 23.8071 6.99628 24.6639 6.92842L29.7205 6.52793C30.0817 6.49932 30.3964 6.27349 30.5355 5.94298L32.4837 1.31569Z" fill="#42A8DF"/>
<path d="M55.5291 1.31569C55.8591 0.531692 56.9834 0.531693 57.3134 1.31569L59.2615 5.94298C59.4008 6.27349 59.7154 6.49932 60.0766 6.52793L65.1332 6.92842C65.9899 6.99628 66.3373 8.05253 65.6846 8.60493L61.832 11.8652C61.5568 12.0981 61.4366 12.4635 61.5207 12.8117L62.6977 17.6865C62.8971 18.5124 61.9877 19.1653 61.2541 18.7227L56.9249 16.1103C56.6157 15.9237 56.2268 15.9237 55.9176 16.1103L51.5883 18.7227C50.8548 19.1653 49.9453 18.5124 50.1448 17.6865L51.3218 12.8117C51.4059 12.4635 51.2857 12.0981 51.0105 11.8652L47.1579 8.60493C46.5051 8.05253 46.8525 6.99628 47.7093 6.92842L52.766 6.52793C53.1271 6.49932 53.4418 6.27349 53.5809 5.94298L55.5291 1.31569Z" fill="#42A8DF"/>
<path d="M78.575 1.31593C78.905 0.531936 80.0293 0.531937 80.3593 1.31593L82.3074 5.94322C82.4467 6.27374 82.7613 6.49957 83.1225 6.52817L88.1791 6.92867C89.0358 6.99652 89.3832 8.05278 88.7305 8.60517L84.8779 11.8654C84.6027 12.0984 84.4825 12.4638 84.5666 12.8119L85.7436 17.6867C85.943 18.5127 85.0336 19.1655 84.3 18.7229L79.9708 16.1106C79.6616 15.9239 79.2727 15.9239 78.9635 16.1106L74.6342 18.7229C73.9007 19.1655 72.9912 18.5127 73.1907 17.6867L74.3677 12.8119C74.4518 12.4638 74.3316 12.0984 74.0564 11.8654L70.2038 8.60517C69.551 8.05278 69.8984 6.99652 70.7552 6.92867L75.8119 6.52817C76.173 6.49957 76.4877 6.27374 76.6268 5.94322L78.575 1.31593Z" fill="#42A8DF"/>
<path d="M101.62 1.31569C101.95 0.531692 103.075 0.531693 103.405 1.31569L105.353 5.94298C105.492 6.27349 105.807 6.49932 106.168 6.52793L111.224 6.92842C112.081 6.99628 112.429 8.05253 111.776 8.60493L107.923 11.8652C107.648 12.0981 107.528 12.4635 107.612 12.8117L108.789 17.6865C108.988 18.5124 108.079 19.1653 107.345 18.7227L103.016 16.1103C102.707 15.9237 102.318 15.9237 102.009 16.1103L97.6797 18.7227C96.9462 19.1653 96.0367 18.5124 96.2361 17.6865L97.4131 12.8117C97.4972 12.4635 97.377 12.0981 97.1018 11.8652L93.2492 8.60493C92.5964 8.05253 92.9438 6.99628 93.8006 6.92842L98.8573 6.52793C99.2185 6.49932 99.5331 6.27349 99.6722 5.94298L101.62 1.31569Z" fill="#42A8DF"/>
</g>
<defs>
<clipPath id="clip0_2_282">
<rect width="111.388" height="18.1379" fill="white" transform="translate(0.727539 0.727692)"/>
</clipPath>
</defs>
</svg>
